<svg width="862" height="317" viewBox="0 0 862 317" fill="none" xmlns="http://www.w3.org/2000/svg">
<rect width="862" height="317" fill="black"/>
<path d="M45 226.545H90.4545V272H45V226.545ZM45 181.091H90.4545V226.545H45V181.091ZM45 135.636H90.4545V181.091H45V135.636ZM45 90.1818H90.4545V135.636H45V90.1818ZM135.909 226.545H181.364V272H135.909V226.545ZM135.909 181.091H181.364V226.545H135.909V181.091ZM135.909 135.636H181.364V181.091H135.909V135.636ZM135.909 90.1818H181.364V135.636H135.909V90.1818ZM226.818 226.545H272.273V272H226.818V226.545ZM226.818 181.091H272.273V226.545H226.818V181.091ZM226.818 135.636H272.273V181.091H226.818V135.636ZM226.818 90.1818H272.273V135.636H226.818V90.1818ZM181.364 44.7273H226.818V90.1818H181.364V44.7273ZM90.4545 44.7273H135.909V90.1818H90.4545V44.7273ZM45 44.7273H90.4545V90.1818H45V44.7273ZM317.949 44.7273H363.404V90.1818H317.949V44.7273ZM317.949 90.1818H363.404V135.636H317.949V90.1818ZM317.949 135.636H363.404V181.091H317.949V135.636ZM317.949 181.091H363.404V226.545H317.949V181.091ZM317.949 226.545H363.404V272H317.949V226.545ZM363.404 44.7273H408.858V90.1818H363.404V44.7273ZM363.404 226.545H408.858V272H363.404V226.545ZM363.404 135.636H408.858V181.091H363.404V135.636ZM408.858 44.7273H454.313V90.1818H408.858V44.7273ZM408.858 226.545H454.313V272H408.858V226.545ZM590.499 44.7273H635.953V90.1818H590.499V44.7273ZM545.044 44.7273H590.499V90.1818H545.044V44.7273ZM499.59 44.7273H545.044V90.1818H499.59V44.7273ZM499.59 90.1818H545.044V135.636H499.59V90.1818ZM499.59 135.636H545.044V181.091H499.59V135.636ZM499.59 181.091H545.044V226.545H499.59V181.091ZM499.59 226.545H545.044V272H499.59V226.545ZM545.044 226.545H590.499V272H545.044V226.545ZM590.499 181.091H635.953V226.545H590.499V181.091ZM590.499 135.636H635.953V181.091H590.499V135.636ZM681.23 226.545H726.685V272H681.23V226.545ZM681.23 181.091H726.685V226.545H681.23V181.091ZM681.23 135.636H726.685V181.091H681.23V135.636ZM681.23 90.1818H726.685V135.636H681.23V90.1818ZM726.685 44.7273H772.14V90.1818H726.685V44.7273ZM772.14 90.1818H817.594V135.636H772.14V90.1818ZM772.14 135.636H817.594V181.091H772.14V135.636ZM772.14 181.091H817.594V226.545H772.14V181.091ZM772.14 226.545H817.594V272H772.14V226.545ZM726.685 135.636H772.14V181.091H726.685V135.636Z" fill="white"/>
</svg>
